<?xml version="1.0" standalone="no"?>
<!DOCTYPE svg PUBLIC "-//W3C//DTD SVG 20010904//EN"
 "http://www.w3.org/TR/2001/REC-SVG-20010904/DTD/svg10.dtd">
<svg version="1.0" xmlns="http://www.w3.org/2000/svg"
 width="1024.000000pt" height="1024.000000pt" viewBox="0 0 1024.000000 1024.000000"
 preserveAspectRatio="xMidYMid meet">

<g transform="translate(0.000000,1024.000000) scale(0.100000,-0.100000)"
fill="#ff7300" stroke="none">
<path d="M1089 8161 c-81 -51 -107 -154 -59 -239 35 -63 74 -86 150 -90 60 -3
68 -1 107 27 59 43 86 100 81 167 -11 135 -164 209 -279 135z"/>
<path d="M8975 8176 c-39 -17 -80 -65 -95 -112 -38 -115 56 -234 184 -234 172
0 240 220 100 327 -29 22 -49 28 -98 30 -37 2 -73 -2 -91 -11z"/>
<path d="M4130 7824 c-96 -97 -223 -220 -282 -275 l-108 -99 -1194 2 c-963 2
-1198 6 -1208 16 -9 9 -15 54 -18 135 l-5 122 -126 3 c-98 2 -129 -1 -138 -11
-8 -11 -10 -513 -9 -1988 l3 -1974 135 0 135 0 5 235 c3 129 9 241 13 248 7 9
308 12 1453 12 l1446 0 40 -40 41 -40 1120 0 1120 0 34 40 35 40 1138 0 c900
0 1141 -3 1147 -12 4 -7 10 -119 13 -248 l5 -235 135 0 135 0 3 1979 c2 1577
0 1981 -10 1988 -15 9 -229 11 -252 2 -13 -5 -16 -25 -16 -118 0 -81 -4 -118
-14 -132 -14 -19 -38 -19 -1063 -22 -903 -2 -1051 -1 -1068 12 -18 13 -20 30
-25 194 l-5 180 -99 81 -98 81 -1122 0 -1121 0 -175 -176z m762 -16 c14 -11
17 -52 21 -298 13 -750 6 -3118 -9 -3142 -3 -5 -120 -8 -260 -8 l-255 0 -97
103 c-53 56 -117 123 -142 148 -151 154 -220 228 -220 237 0 19 31 41 430 305
l65 43 3 903 2 902 -24 22 c-13 12 -123 87 -245 166 -134 88 -221 151 -221
161 0 14 415 438 451 461 23 14 482 11 501 -3z m1301 -521 c15 -6 17 -25 17
-160 0 -106 4 -157 12 -165 9 -9 83 -12 270 -12 l258 0 0 148 c0 107 4 153 13
166 13 17 34 18 307 17 162 -1 297 -4 300 -7 3 -3 6 -639 8 -1414 2 -1273 1
-1410 -14 -1424 -13 -14 -54 -16 -298 -16 -251 0 -285 2 -297 17 -11 13 -15
90 -17 380 l-3 363 -267 -2 -267 -3 -3 -145 c-2 -100 -6 -147 -15 -152 -21
-14 -861 -10 -875 4 -9 9 -12 289 -12 1199 0 1149 1 1188 19 1201 14 10 107
13 433 12 228 0 422 -3 431 -7z m-2471 -20 c4 -6 8 -569 8 -1250 l0 -1239 113
-115 c122 -126 117 -121 165 -176 59 -69 78 -67 -532 -67 -408 0 -545 3 -554
12 -9 9 -12 339 -12 1425 0 1389 0 1414 19 1421 11 4 192 6 402 4 289 -2 385
-5 391 -15z m5186 -4 c10 -14 12 -304 10 -1420 -3 -1235 -5 -1405 -18 -1413
-9 -6 -279 -10 -682 -10 -650 0 -668 1 -678 19 -12 23 -14 2809 -2 2828 4 6
21 13 37 15 17 1 320 2 675 0 587 -3 646 -4 658 -19z m-6160 -1402 c1 -1037
-1 -1417 -9 -1427 -9 -12 -132 -14 -700 -14 l-689 0 -15 24 c-14 21 -15 172
-13 1417 2 767 7 1400 11 1407 7 10 155 12 710 10 l702 -3 3 -1414z"/>
<path d="M1335 3103 c-209 -75 -320 -262 -287 -481 30 -191 167 -332 356 -365
83 -14 188 2 257 40 46 24 149 118 149 135 0 11 -102 78 -118 78 -7 0 -25 -14
-40 -31 -65 -78 -202 -102 -300 -53 -92 46 -143 135 -144 255 -2 172 105 292
262 293 75 0 128 -22 183 -79 l34 -35 48 33 c77 53 78 61 19 115 -27 26 -77
60 -110 76 -51 26 -72 30 -159 33 -77 3 -112 -1 -150 -14z"/>
<path d="M4950 2686 l0 -416 23 -5 c13 -4 46 -5 73 -3 l49 3 3 268 c1 172 6
267 13 267 11 0 29 -28 129 -209 l75 -136 55 0 55 0 87 155 c90 160 111 190
128 190 6 0 10 -93 10 -265 l0 -265 43 -1 c23 0 54 -3 69 -5 l26 -4 4 382 c1
211 1 400 -1 421 l-3 37 -73 0 c-46 0 -76 -5 -83 -12 -5 -7 -60 -101 -121
-208 -62 -107 -119 -202 -127 -210 -20 -20 -23 -16 -128 175 -46 83 -97 173
-113 200 l-29 50 -82 3 -82 3 0 -415z"/>
<path d="M6151 2889 c-63 -11 -171 -65 -171 -86 0 -9 13 -32 30 -53 l29 -37
57 28 c60 30 121 37 168 19 33 -12 67 -67 64 -100 -3 -25 -4 -25 -103 -27
-146 -2 -226 -36 -265 -113 -36 -70 -19 -172 37 -222 70 -64 189 -63 286 0 39
26 52 23 59 -13 3 -17 12 -20 71 -23 l67 -3 0 228 c0 218 -1 230 -24 278 -27
59 -47 78 -106 103 -57 25 -130 32 -199 21z m160 -349 c16 0 19 -7 19 -42 0
-66 -29 -104 -91 -122 -84 -25 -149 5 -149 70 0 56 35 85 111 94 35 4 70 6 77
4 8 -2 22 -4 33 -4z"/>
<path d="M8889 2889 c-45 -7 -81 -22 -127 -55 -21 -16 -23 -16 -33 15 l-11 32
-67 -3 -66 -3 -3 -405 c-1 -223 0 -415 3 -427 5 -21 11 -23 69 -23 42 0 67 5
75 14 8 9 11 59 10 146 0 72 1 133 3 136 3 2 35 -12 72 -31 100 -52 179 -45
269 24 74 56 111 138 115 258 4 86 2 98 -25 155 -59 126 -161 185 -284 167z
m88 -152 c43 -29 63 -82 63 -165 0 -51 -6 -77 -23 -107 -58 -103 -198 -110
-257 -13 -43 72 -34 212 18 261 62 59 134 68 199 24z"/>
<path d="M6781 2859 c-117 -59 -178 -172 -169 -314 8 -120 70 -215 176 -266
65 -32 196 -34 262 -3 53 25 120 85 120 107 0 8 -23 29 -51 47 l-51 31 -34
-30 c-52 -46 -103 -58 -159 -37 -117 45 -152 224 -62 316 38 39 65 50 123 50
36 0 51 -6 84 -36 l40 -36 43 25 c81 48 82 70 8 121 -59 41 -107 55 -192 56
-65 0 -84 -4 -138 -31z"/>
<path d="M8025 2867 c-66 -31 -122 -89 -154 -157 -31 -68 -34 -188 -7 -259 57
-153 246 -238 412 -185 66 21 139 72 139 98 0 10 -18 31 -41 48 l-41 29 -38
-26 c-49 -33 -73 -38 -144 -33 -68 5 -116 35 -138 85 -25 61 -18 63 217 63
238 0 237 0 225 75 -13 87 -35 142 -76 189 -61 69 -106 89 -214 93 -79 4 -96
1 -140 -20z m209 -116 c33 -18 71 -83 62 -106 -4 -12 -31 -15 -146 -15 l-140
0 0 30 c0 61 95 126 165 113 17 -3 43 -13 59 -22z"/>
<path d="M1874 2866 c-3 -7 -4 -35 -2 -62 l3 -49 100 -5 100 -5 5 -240 5 -240
70 0 70 0 3 243 2 242 95 0 95 0 0 65 0 65 -270 0 c-221 0 -272 -3 -276 -14z"/>
<path d="M2545 2868 c-3 -7 -4 -146 -3 -308 l3 -295 60 -3 60 -3 138 181 c76
99 142 180 147 180 14 0 21 -86 19 -216 -1 -75 2 -129 8 -135 6 -6 37 -9 69
-7 l59 3 0 305 0 305 -62 3 -62 3 -33 -44 c-164 -220 -236 -307 -254 -307 -11
0 -14 34 -16 173 l-3 172 -63 3 c-44 2 -64 -1 -67 -10z"/>
<path d="M3366 2868 c-3 -7 -7 -74 -11 -148 -11 -237 -32 -307 -101 -336 -36
-15 -36 -15 -29 -62 10 -68 20 -75 83 -58 56 14 99 48 134 104 26 42 47 164
48 273 0 116 4 119 107 112 l83 -6 2 -241 3 -241 70 0 70 0 0 305 0 305 -228
3 c-177 2 -228 0 -231 -10z"/>
<path d="M4005 2868 c-3 -7 -4 -146 -3 -308 l3 -295 159 -3 c178 -3 242 9 297
55 85 72 92 208 13 286 -45 45 -90 59 -209 66 l-110 6 -5 100 -5 100 -68 3
c-48 2 -69 -1 -72 -10z m343 -338 c27 -17 32 -25 32 -60 0 -44 -23 -75 -62
-85 -13 -3 -55 -5 -93 -3 l-70 3 -3 69 c-2 38 -1 75 2 83 9 22 153 18 194 -7z"/>
<path d="M7232 2818 l3 -63 98 -3 97 -3 0 -233 c0 -189 3 -236 14 -245 9 -7
38 -11 73 -9 l58 3 5 240 5 240 95 5 95 5 3 63 3 62 -276 0 -276 0 3 -62z"/>
</g>
</svg>
